<mxfile host="app.diagrams.net" modified="2023-09-28T02:06:57.804Z" agent="Mozilla/5.0 (Windows NT 10.0; Win64; x64; rv:109.0) Gecko/20100101 Firefox/117.0" etag="-kDOoIoIgSkzhY5w4q23" version="21.7.2" type="github">
  <diagram id="C5RBs43oDa-KdzZeNtuy" name="Page-1">
    <mxGraphModel dx="1032" dy="1129" grid="1" gridSize="10" guides="1" tooltips="1" connect="1" arrows="1" fold="1" page="1" pageScale="1" pageWidth="827" pageHeight="1169" math="0" shadow="0">
      <root>
        <mxCell id="WIyWlLk6GJQsqaUBKTNV-0" />
        <mxCell id="WIyWlLk6GJQsqaUBKTNV-1" parent="WIyWlLk6GJQsqaUBKTNV-0" />
        <mxCell id="8MyT-QM6v6EzXiuJnhRN-0" value="GeometricObject" style="swimlane;fontStyle=1;align=center;verticalAlign=top;childLayout=stackLayout;horizontal=1;startSize=26;horizontalStack=0;resizeParent=1;resizeParentMax=0;resizeLast=0;collapsible=1;marginBottom=0;whiteSpace=wrap;html=1;" vertex="1" parent="WIyWlLk6GJQsqaUBKTNV-1">
          <mxGeometry x="80" y="213" width="320" height="372" as="geometry" />
        </mxCell>
        <mxCell id="8MyT-QM6v6EzXiuJnhRN-1" value="-colour: String" style="text;strokeColor=none;fillColor=none;align=left;verticalAlign=top;spacingLeft=4;spacingRight=4;overflow=hidden;rotatable=0;points=[[0,0.5],[1,0.5]];portConstraint=eastwest;whiteSpace=wrap;html=1;" vertex="1" parent="8MyT-QM6v6EzXiuJnhRN-0">
          <mxGeometry y="26" width="320" height="26" as="geometry" />
        </mxCell>
        <mxCell id="8MyT-QM6v6EzXiuJnhRN-4" value="-filled: boolean" style="text;strokeColor=none;fillColor=none;align=left;verticalAlign=top;spacingLeft=4;spacingRight=4;overflow=hidden;rotatable=0;points=[[0,0.5],[1,0.5]];portConstraint=eastwest;whiteSpace=wrap;html=1;" vertex="1" parent="8MyT-QM6v6EzXiuJnhRN-0">
          <mxGeometry y="52" width="320" height="26" as="geometry" />
        </mxCell>
        <mxCell id="8MyT-QM6v6EzXiuJnhRN-6" value="-dateCreated: java.util.Date" style="text;strokeColor=none;fillColor=none;align=left;verticalAlign=top;spacingLeft=4;spacingRight=4;overflow=hidden;rotatable=0;points=[[0,0.5],[1,0.5]];portConstraint=eastwest;whiteSpace=wrap;html=1;" vertex="1" parent="8MyT-QM6v6EzXiuJnhRN-0">
          <mxGeometry y="78" width="320" height="26" as="geometry" />
        </mxCell>
        <mxCell id="8MyT-QM6v6EzXiuJnhRN-2" value="" style="line;strokeWidth=1;fillColor=none;align=left;verticalAlign=middle;spacingTop=-1;spacingLeft=3;spacingRight=3;rotatable=0;labelPosition=right;points=[];portConstraint=eastwest;strokeColor=inherit;" vertex="1" parent="8MyT-QM6v6EzXiuJnhRN-0">
          <mxGeometry y="104" width="320" height="8" as="geometry" />
        </mxCell>
        <mxCell id="8MyT-QM6v6EzXiuJnhRN-3" value="+GeometricObject()" style="text;strokeColor=none;fillColor=none;align=left;verticalAlign=top;spacingLeft=4;spacingRight=4;overflow=hidden;rotatable=0;points=[[0,0.5],[1,0.5]];portConstraint=eastwest;whiteSpace=wrap;html=1;" vertex="1" parent="8MyT-QM6v6EzXiuJnhRN-0">
          <mxGeometry y="112" width="320" height="26" as="geometry" />
        </mxCell>
        <mxCell id="8MyT-QM6v6EzXiuJnhRN-7" value="+GeometricObject(colour: String, filled: boolean)" style="text;strokeColor=none;fillColor=none;align=left;verticalAlign=top;spacingLeft=4;spacingRight=4;overflow=hidden;rotatable=0;points=[[0,0.5],[1,0.5]];portConstraint=eastwest;whiteSpace=wrap;html=1;" vertex="1" parent="8MyT-QM6v6EzXiuJnhRN-0">
          <mxGeometry y="138" width="320" height="26" as="geometry" />
        </mxCell>
        <mxCell id="8MyT-QM6v6EzXiuJnhRN-15" value="+getColour(): String" style="text;strokeColor=none;fillColor=none;align=left;verticalAlign=top;spacingLeft=4;spacingRight=4;overflow=hidden;rotatable=0;points=[[0,0.5],[1,0.5]];portConstraint=eastwest;whiteSpace=wrap;html=1;" vertex="1" parent="8MyT-QM6v6EzXiuJnhRN-0">
          <mxGeometry y="164" width="320" height="26" as="geometry" />
        </mxCell>
        <mxCell id="8MyT-QM6v6EzXiuJnhRN-16" value="+setColour(colour: String)" style="text;strokeColor=none;fillColor=none;align=left;verticalAlign=top;spacingLeft=4;spacingRight=4;overflow=hidden;rotatable=0;points=[[0,0.5],[1,0.5]];portConstraint=eastwest;whiteSpace=wrap;html=1;" vertex="1" parent="8MyT-QM6v6EzXiuJnhRN-0">
          <mxGeometry y="190" width="320" height="26" as="geometry" />
        </mxCell>
        <mxCell id="8MyT-QM6v6EzXiuJnhRN-17" value="+isFilled(): boolean" style="text;strokeColor=none;fillColor=none;align=left;verticalAlign=top;spacingLeft=4;spacingRight=4;overflow=hidden;rotatable=0;points=[[0,0.5],[1,0.5]];portConstraint=eastwest;whiteSpace=wrap;html=1;" vertex="1" parent="8MyT-QM6v6EzXiuJnhRN-0">
          <mxGeometry y="216" width="320" height="26" as="geometry" />
        </mxCell>
        <mxCell id="8MyT-QM6v6EzXiuJnhRN-18" value="+setFilled(filled: boolean)" style="text;strokeColor=none;fillColor=none;align=left;verticalAlign=top;spacingLeft=4;spacingRight=4;overflow=hidden;rotatable=0;points=[[0,0.5],[1,0.5]];portConstraint=eastwest;whiteSpace=wrap;html=1;" vertex="1" parent="8MyT-QM6v6EzXiuJnhRN-0">
          <mxGeometry y="242" width="320" height="26" as="geometry" />
        </mxCell>
        <mxCell id="8MyT-QM6v6EzXiuJnhRN-19" value="+getDateCreated(): java.util.Date" style="text;strokeColor=none;fillColor=none;align=left;verticalAlign=top;spacingLeft=4;spacingRight=4;overflow=hidden;rotatable=0;points=[[0,0.5],[1,0.5]];portConstraint=eastwest;whiteSpace=wrap;html=1;" vertex="1" parent="8MyT-QM6v6EzXiuJnhRN-0">
          <mxGeometry y="268" width="320" height="26" as="geometry" />
        </mxCell>
        <mxCell id="8MyT-QM6v6EzXiuJnhRN-20" value="+toString(): String" style="text;strokeColor=none;fillColor=none;align=left;verticalAlign=top;spacingLeft=4;spacingRight=4;overflow=hidden;rotatable=0;points=[[0,0.5],[1,0.5]];portConstraint=eastwest;whiteSpace=wrap;html=1;" vertex="1" parent="8MyT-QM6v6EzXiuJnhRN-0">
          <mxGeometry y="294" width="320" height="26" as="geometry" />
        </mxCell>
        <mxCell id="8MyT-QM6v6EzXiuJnhRN-21" value="+getArea(): double" style="text;strokeColor=none;fillColor=none;align=left;verticalAlign=top;spacingLeft=4;spacingRight=4;overflow=hidden;rotatable=0;points=[[0,0.5],[1,0.5]];portConstraint=eastwest;whiteSpace=wrap;html=1;fontStyle=2" vertex="1" parent="8MyT-QM6v6EzXiuJnhRN-0">
          <mxGeometry y="320" width="320" height="26" as="geometry" />
        </mxCell>
        <mxCell id="8MyT-QM6v6EzXiuJnhRN-22" value="+getPerimeter(): double" style="text;strokeColor=none;fillColor=none;align=left;verticalAlign=top;spacingLeft=4;spacingRight=4;overflow=hidden;rotatable=0;points=[[0,0.5],[1,0.5]];portConstraint=eastwest;whiteSpace=wrap;html=1;fontStyle=2" vertex="1" parent="8MyT-QM6v6EzXiuJnhRN-0">
          <mxGeometry y="346" width="320" height="26" as="geometry" />
        </mxCell>
        <mxCell id="8MyT-QM6v6EzXiuJnhRN-24" value="Octagon" style="swimlane;fontStyle=1;align=center;verticalAlign=top;childLayout=stackLayout;horizontal=1;startSize=26;horizontalStack=0;resizeParent=1;resizeParentMax=0;resizeLast=0;collapsible=1;marginBottom=0;whiteSpace=wrap;html=1;" vertex="1" parent="WIyWlLk6GJQsqaUBKTNV-1">
          <mxGeometry x="60" y="700" width="340" height="372" as="geometry" />
        </mxCell>
        <mxCell id="8MyT-QM6v6EzXiuJnhRN-25" value="-sideLength: double" style="text;strokeColor=none;fillColor=none;align=left;verticalAlign=top;spacingLeft=4;spacingRight=4;overflow=hidden;rotatable=0;points=[[0,0.5],[1,0.5]];portConstraint=eastwest;whiteSpace=wrap;html=1;" vertex="1" parent="8MyT-QM6v6EzXiuJnhRN-24">
          <mxGeometry y="26" width="340" height="26" as="geometry" />
        </mxCell>
        <mxCell id="8MyT-QM6v6EzXiuJnhRN-28" value="" style="line;strokeWidth=1;fillColor=none;align=left;verticalAlign=middle;spacingTop=-1;spacingLeft=3;spacingRight=3;rotatable=0;labelPosition=right;points=[];portConstraint=eastwest;strokeColor=inherit;" vertex="1" parent="8MyT-QM6v6EzXiuJnhRN-24">
          <mxGeometry y="52" width="340" height="8" as="geometry" />
        </mxCell>
        <mxCell id="8MyT-QM6v6EzXiuJnhRN-30" value="+Octagon()" style="text;strokeColor=none;fillColor=none;align=left;verticalAlign=top;spacingLeft=4;spacingRight=4;overflow=hidden;rotatable=0;points=[[0,0.5],[1,0.5]];portConstraint=eastwest;whiteSpace=wrap;html=1;" vertex="1" parent="8MyT-QM6v6EzXiuJnhRN-24">
          <mxGeometry y="60" width="340" height="26" as="geometry" />
        </mxCell>
        <mxCell id="8MyT-QM6v6EzXiuJnhRN-31" value="+Octagon(sideLength: double)" style="text;strokeColor=none;fillColor=none;align=left;verticalAlign=top;spacingLeft=4;spacingRight=4;overflow=hidden;rotatable=0;points=[[0,0.5],[1,0.5]];portConstraint=eastwest;whiteSpace=wrap;html=1;" vertex="1" parent="8MyT-QM6v6EzXiuJnhRN-24">
          <mxGeometry y="86" width="340" height="26" as="geometry" />
        </mxCell>
        <mxCell id="8MyT-QM6v6EzXiuJnhRN-32" value="+Octagon(colour: String, filled: boolean, sideLength: double)" style="text;strokeColor=none;fillColor=none;align=left;verticalAlign=top;spacingLeft=4;spacingRight=4;overflow=hidden;rotatable=0;points=[[0,0.5],[1,0.5]];portConstraint=eastwest;whiteSpace=wrap;html=1;" vertex="1" parent="8MyT-QM6v6EzXiuJnhRN-24">
          <mxGeometry y="112" width="340" height="26" as="geometry" />
        </mxCell>
        <mxCell id="8MyT-QM6v6EzXiuJnhRN-33" value="+getSideLength(): double" style="text;strokeColor=none;fillColor=none;align=left;verticalAlign=top;spacingLeft=4;spacingRight=4;overflow=hidden;rotatable=0;points=[[0,0.5],[1,0.5]];portConstraint=eastwest;whiteSpace=wrap;html=1;" vertex="1" parent="8MyT-QM6v6EzXiuJnhRN-24">
          <mxGeometry y="138" width="340" height="26" as="geometry" />
        </mxCell>
        <mxCell id="8MyT-QM6v6EzXiuJnhRN-34" value="+setSideLength(sideLength: double)" style="text;strokeColor=none;fillColor=none;align=left;verticalAlign=top;spacingLeft=4;spacingRight=4;overflow=hidden;rotatable=0;points=[[0,0.5],[1,0.5]];portConstraint=eastwest;whiteSpace=wrap;html=1;" vertex="1" parent="8MyT-QM6v6EzXiuJnhRN-24">
          <mxGeometry y="164" width="340" height="26" as="geometry" />
        </mxCell>
        <mxCell id="8MyT-QM6v6EzXiuJnhRN-35" value="+getArea(): double" style="text;strokeColor=none;fillColor=none;align=left;verticalAlign=top;spacingLeft=4;spacingRight=4;overflow=hidden;rotatable=0;points=[[0,0.5],[1,0.5]];portConstraint=eastwest;whiteSpace=wrap;html=1;" vertex="1" parent="8MyT-QM6v6EzXiuJnhRN-24">
          <mxGeometry y="190" width="340" height="26" as="geometry" />
        </mxCell>
        <mxCell id="8MyT-QM6v6EzXiuJnhRN-36" value="+getPerimeter(): double" style="text;strokeColor=none;fillColor=none;align=left;verticalAlign=top;spacingLeft=4;spacingRight=4;overflow=hidden;rotatable=0;points=[[0,0.5],[1,0.5]];portConstraint=eastwest;whiteSpace=wrap;html=1;" vertex="1" parent="8MyT-QM6v6EzXiuJnhRN-24">
          <mxGeometry y="216" width="340" height="26" as="geometry" />
        </mxCell>
        <mxCell id="8MyT-QM6v6EzXiuJnhRN-37" value="+getArea(): double" style="text;strokeColor=none;fillColor=none;align=left;verticalAlign=top;spacingLeft=4;spacingRight=4;overflow=hidden;rotatable=0;points=[[0,0.5],[1,0.5]];portConstraint=eastwest;whiteSpace=wrap;html=1;" vertex="1" parent="8MyT-QM6v6EzXiuJnhRN-24">
          <mxGeometry y="242" width="340" height="26" as="geometry" />
        </mxCell>
        <mxCell id="8MyT-QM6v6EzXiuJnhRN-38" value="+getPerimeter(): double" style="text;strokeColor=none;fillColor=none;align=left;verticalAlign=top;spacingLeft=4;spacingRight=4;overflow=hidden;rotatable=0;points=[[0,0.5],[1,0.5]];portConstraint=eastwest;whiteSpace=wrap;html=1;" vertex="1" parent="8MyT-QM6v6EzXiuJnhRN-24">
          <mxGeometry y="268" width="340" height="26" as="geometry" />
        </mxCell>
        <mxCell id="8MyT-QM6v6EzXiuJnhRN-41" value="+compareTo(otherOctagon: Octagon): int" style="text;strokeColor=none;fillColor=none;align=left;verticalAlign=top;spacingLeft=4;spacingRight=4;overflow=hidden;rotatable=0;points=[[0,0.5],[1,0.5]];portConstraint=eastwest;whiteSpace=wrap;html=1;" vertex="1" parent="8MyT-QM6v6EzXiuJnhRN-24">
          <mxGeometry y="294" width="340" height="26" as="geometry" />
        </mxCell>
        <mxCell id="8MyT-QM6v6EzXiuJnhRN-42" value="+clone(): Octagon" style="text;strokeColor=none;fillColor=none;align=left;verticalAlign=top;spacingLeft=4;spacingRight=4;overflow=hidden;rotatable=0;points=[[0,0.5],[1,0.5]];portConstraint=eastwest;whiteSpace=wrap;html=1;" vertex="1" parent="8MyT-QM6v6EzXiuJnhRN-24">
          <mxGeometry y="320" width="340" height="26" as="geometry" />
        </mxCell>
        <mxCell id="8MyT-QM6v6EzXiuJnhRN-43" value="+toString(): String" style="text;strokeColor=none;fillColor=none;align=left;verticalAlign=top;spacingLeft=4;spacingRight=4;overflow=hidden;rotatable=0;points=[[0,0.5],[1,0.5]];portConstraint=eastwest;whiteSpace=wrap;html=1;" vertex="1" parent="8MyT-QM6v6EzXiuJnhRN-24">
          <mxGeometry y="346" width="340" height="26" as="geometry" />
        </mxCell>
        <mxCell id="8MyT-QM6v6EzXiuJnhRN-49" value="&amp;lt;&amp;lt;interface&amp;gt;&amp;gt;&lt;br&gt;java.lang.Comparable&amp;lt;Octagon&amp;gt;" style="html=1;whiteSpace=wrap;fontStyle=1" vertex="1" parent="WIyWlLk6GJQsqaUBKTNV-1">
          <mxGeometry x="570" y="810" width="210" height="50" as="geometry" />
        </mxCell>
        <mxCell id="8MyT-QM6v6EzXiuJnhRN-50" value="&amp;lt;&amp;lt;interface&amp;gt;&amp;gt;&lt;br&gt;java.lang.Cloneable" style="html=1;whiteSpace=wrap;fontStyle=1" vertex="1" parent="WIyWlLk6GJQsqaUBKTNV-1">
          <mxGeometry x="570" y="910" width="210" height="50" as="geometry" />
        </mxCell>
        <mxCell id="8MyT-QM6v6EzXiuJnhRN-51" value="" style="endArrow=block;dashed=1;endFill=0;endSize=12;html=1;rounded=0;" edge="1" parent="WIyWlLk6GJQsqaUBKTNV-1">
          <mxGeometry width="160" relative="1" as="geometry">
            <mxPoint x="490" y="840" as="sourcePoint" />
            <mxPoint x="570" y="840" as="targetPoint" />
          </mxGeometry>
        </mxCell>
        <mxCell id="8MyT-QM6v6EzXiuJnhRN-52" value="" style="endArrow=block;dashed=1;endFill=0;endSize=12;html=1;rounded=0;" edge="1" parent="WIyWlLk6GJQsqaUBKTNV-1">
          <mxGeometry width="160" relative="1" as="geometry">
            <mxPoint x="490" y="934.5" as="sourcePoint" />
            <mxPoint x="570" y="934.5" as="targetPoint" />
          </mxGeometry>
        </mxCell>
        <mxCell id="8MyT-QM6v6EzXiuJnhRN-54" value="" style="endArrow=none;dashed=1;html=1;rounded=0;" edge="1" parent="WIyWlLk6GJQsqaUBKTNV-1">
          <mxGeometry width="50" height="50" relative="1" as="geometry">
            <mxPoint x="490" y="930" as="sourcePoint" />
            <mxPoint x="490" y="840" as="targetPoint" />
          </mxGeometry>
        </mxCell>
        <mxCell id="8MyT-QM6v6EzXiuJnhRN-55" value="" style="endArrow=none;dashed=1;html=1;rounded=0;exitX=1.003;exitY=0.962;exitDx=0;exitDy=0;exitPerimeter=0;" edge="1" parent="WIyWlLk6GJQsqaUBKTNV-1" source="8MyT-QM6v6EzXiuJnhRN-34">
          <mxGeometry width="50" height="50" relative="1" as="geometry">
            <mxPoint x="404.0799999999999" y="889.988" as="sourcePoint" />
            <mxPoint x="490" y="889" as="targetPoint" />
          </mxGeometry>
        </mxCell>
        <mxCell id="8MyT-QM6v6EzXiuJnhRN-56" value="" style="endArrow=block;endSize=16;endFill=0;html=1;rounded=0;exitX=0.5;exitY=0;exitDx=0;exitDy=0;entryX=0.472;entryY=1;entryDx=0;entryDy=0;entryPerimeter=0;" edge="1" parent="WIyWlLk6GJQsqaUBKTNV-1" source="8MyT-QM6v6EzXiuJnhRN-24" target="8MyT-QM6v6EzXiuJnhRN-22">
          <mxGeometry width="160" relative="1" as="geometry">
            <mxPoint x="330" y="600" as="sourcePoint" />
            <mxPoint x="490" y="600" as="targetPoint" />
          </mxGeometry>
        </mxCell>
      </root>
    </mxGraphModel>
  </diagram>
</mxfile>
